<svg width="72" height="72" viewBox="0 0 72 72" fill="none" xmlns="http://www.w3.org/2000/svg">
<g filter="url(#filter0_d)">
<path d="M36 58C49.2548 58 60 47.2548 60 34C60 20.7452 49.2548 10 36 10C22.7452 10 12 20.7452 12 34C12 47.2548 22.7452 58 36 58Z" fill="white"/>
</g>
<path fill-rule="evenodd" clip-rule="evenodd" d="M42.5117 22.7309C40.3652 21.9344 40.3048 21.9564 39.2839 23.9218C38.9629 24.5399 38.5233 25.3861 37.8714 26.4689C33.952 32.9812 25.6345 35.2262 25.2419 35.3284C22.7382 35.3305 21.0627 35.8303 20.2623 36.8148C19.7702 37.4199 19.7798 38.0164 19.8007 38.218C19.3882 38.5992 19.1863 38.9875 19.2007 39.3725C19.2192 39.8774 19.6056 40.1782 19.6178 40.1871C19.7125 40.2668 22.0972 42.1425 35.7723 42.563C37.4979 42.6159 39.0732 42.6391 40.5088 42.6391C50.4359 42.6391 53.6857 41.5345 53.7219 41.522L53.8006 41.4269C54.1982 38.8798 53.9271 37.9653 53.6299 37.6466C53.5685 37.5809 53.5079 37.542 53.4554 37.5191C53.6189 36.8103 53.5848 35.6992 53.4554 34.2391L39.754 33.7673C39.754 33.7673 44.2579 28.0174 47.3428 24.2666C45.0259 23.6623 43.5362 23.1109 42.5117 22.7309Z" fill="#FFCC66"/>
<path d="M30.216 32.3977L33.636 35.0353M17.519 38.5583C17.519 38.5583 17.0857 35.8087 22.9758 35.8087C22.9758 35.8087 31.4515 33.5567 35.519 26.7983C39.5865 20.0408 35.3657 22.9968 49.1563 25.6719C49.1563 25.6719 49.9652 25.7128 49.919 26.5583C49.8716 27.4027 51.6347 35.9026 51.027 37.9664C51.027 37.9664 52.0082 37.8735 51.4003 41.7673C51.4003 41.7673 47.2866 43.2237 33.495 42.8015C19.7043 42.3773 17.4137 40.4537 17.4137 40.4537C17.4137 40.4537 16.3034 39.6383 17.519 38.5583ZM36.935 24.525C36.935 24.525 38.9969 25.2794 41.1593 23.7705L36.935 24.525ZM17.999 38.492C17.999 38.492 38.9318 41.7375 51.119 37.8383L17.999 38.492ZM50.2438 26.3269C50.2438 26.3269 52.993 26.3144 50.5995 30.4556L50.2438 26.3269ZM35.6554 26.8669L40.3471 30.2238L35.6554 26.8669ZM34.1554 28.9348L38.574 32.0848L34.1554 28.9348ZM32.3444 30.7561L36.6012 34.0393L32.3444 30.7561Z" stroke="#231F20" stroke-linecap="round" stroke-linejoin="round"/>
<defs>
<filter id="filter0_d" x="0" y="0" width="72" height="72" filterUnits="userSpaceOnUse" color-interpolation-filters="sRGB">
<feFlood flood-opacity="0" result="BackgroundImageFix"/>
<feColorMatrix in="SourceAlpha" type="matrix" values="0 0 0 0 0 0 0 0 0 0 0 0 0 0 0 0 0 0 127 0"/>
<feOffset dy="2"/>
<feGaussianBlur stdDeviation="6"/>
<feColorMatrix type="matrix" values="0 0 0 0 0.133333 0 0 0 0 0.133333 0 0 0 0 0.133333 0 0 0 0.2 0"/>
<feBlend mode="normal" in2="BackgroundImageFix" result="effect1_dropShadow"/>
<feBlend mode="normal" in="SourceGraphic" in2="effect1_dropShadow" result="shape"/>
</filter>
</defs>
</svg>
